<mxfile host="app.diagrams.net" modified="2024-04-28T15:58:03.205Z" agent="Mozilla/5.0 (Windows NT 10.0; Win64; x64) AppleWebKit/537.36 (KHTML, like Gecko) Chrome/124.0.0.0 Safari/537.36" etag="SS5bOrEPqaIj19bEde_z" version="24.2.5" type="device">
  <diagram name="Page-1" id="13e1069c-82ec-6db2-03f1-153e76fe0fe0">
    <mxGraphModel dx="792" dy="1139" grid="1" gridSize="10" guides="1" tooltips="1" connect="1" arrows="1" fold="1" page="1" pageScale="1" pageWidth="1100" pageHeight="850" background="none" math="0" shadow="0">
      <root>
        <mxCell id="0" />
        <mxCell id="1" parent="0" />
        <mxCell id="7baba1c4bc27f4b0-2" value="RPA Interface" style="shape=umlLifeline;perimeter=lifelinePerimeter;whiteSpace=wrap;html=1;container=1;collapsible=0;recursiveResize=0;outlineConnect=0;rounded=1;shadow=0;comic=0;labelBackgroundColor=none;strokeWidth=1;fontFamily=Verdana;fontSize=12;align=center;" parent="1" vertex="1">
          <mxGeometry x="240" y="80" width="100" height="480" as="geometry" />
        </mxCell>
        <mxCell id="7baba1c4bc27f4b0-16" value="" style="html=1;points=[];perimeter=orthogonalPerimeter;rounded=0;shadow=0;comic=0;labelBackgroundColor=none;strokeWidth=1;fontFamily=Verdana;fontSize=12;align=center;" parent="7baba1c4bc27f4b0-2" vertex="1">
          <mxGeometry x="45" y="110" width="10" height="30" as="geometry" />
        </mxCell>
        <mxCell id="y_yRbqdmOVOouyvcq43K-17" value="&lt;span style=&quot;white-space: pre;&quot;&gt;&#x9;&lt;span style=&quot;white-space: pre;&quot;&gt;&#x9;&lt;/span&gt;&lt;/span&gt;sendNotification()" style="html=1;verticalAlign=bottom;endArrow=block;labelBackgroundColor=none;fontFamily=Verdana;fontSize=12;" parent="7baba1c4bc27f4b0-2" edge="1">
          <mxGeometry relative="1" as="geometry">
            <mxPoint x="-77.5" y="460" as="sourcePoint" />
            <mxPoint x="177.5" y="460" as="targetPoint" />
          </mxGeometry>
        </mxCell>
        <mxCell id="y_yRbqdmOVOouyvcq43K-18" value="if server availability not in&lt;div style=&quot;font-size: 7px;&quot;&gt;&amp;nbsp;acceptedServerStatus before&amp;nbsp;&lt;br&gt;unavailabilityTimeThreshold&lt;/div&gt;" style="edgeLabel;html=1;align=center;verticalAlign=middle;resizable=0;points=[];fontSize=7;" parent="y_yRbqdmOVOouyvcq43K-17" vertex="1" connectable="0">
          <mxGeometry x="-0.8837" relative="1" as="geometry">
            <mxPoint x="35" y="-16" as="offset" />
          </mxGeometry>
        </mxCell>
        <mxCell id="7baba1c4bc27f4b0-3" value="Notification System" style="shape=umlLifeline;perimeter=lifelinePerimeter;whiteSpace=wrap;html=1;container=1;collapsible=0;recursiveResize=0;outlineConnect=0;rounded=1;shadow=0;comic=0;labelBackgroundColor=none;strokeWidth=1;fontFamily=Verdana;fontSize=12;align=center;" parent="1" vertex="1">
          <mxGeometry x="370" y="80" width="100" height="480" as="geometry" />
        </mxCell>
        <mxCell id="y_yRbqdmOVOouyvcq43K-6" value="" style="html=1;points=[];perimeter=orthogonalPerimeter;rounded=0;shadow=0;comic=0;labelBackgroundColor=none;strokeWidth=1;fontFamily=Verdana;fontSize=12;align=center;" parent="7baba1c4bc27f4b0-3" vertex="1">
          <mxGeometry x="45" y="230" width="10" height="20" as="geometry" />
        </mxCell>
        <mxCell id="y_yRbqdmOVOouyvcq43K-19" value="" style="html=1;points=[];perimeter=orthogonalPerimeter;rounded=0;shadow=0;comic=0;labelBackgroundColor=none;strokeWidth=1;fontFamily=Verdana;fontSize=12;align=center;" parent="7baba1c4bc27f4b0-3" vertex="1">
          <mxGeometry x="45" y="460" width="10" height="20" as="geometry" />
        </mxCell>
        <mxCell id="7baba1c4bc27f4b0-8" value="Orchestrator" style="shape=umlLifeline;perimeter=lifelinePerimeter;whiteSpace=wrap;html=1;container=1;collapsible=0;recursiveResize=0;outlineConnect=0;rounded=1;shadow=0;comic=0;labelBackgroundColor=none;strokeWidth=1;fontFamily=Verdana;fontSize=12;align=center;" parent="1" vertex="1">
          <mxGeometry x="110" y="80" width="100" height="480" as="geometry" />
        </mxCell>
        <mxCell id="y_yRbqdmOVOouyvcq43K-9" value="" style="html=1;points=[];perimeter=orthogonalPerimeter;rounded=0;shadow=0;comic=0;labelBackgroundColor=none;strokeWidth=1;fontFamily=Verdana;fontSize=12;align=center;" parent="7baba1c4bc27f4b0-8" vertex="1">
          <mxGeometry x="45" y="270" width="10" height="190" as="geometry" />
        </mxCell>
        <mxCell id="7baba1c4bc27f4b0-9" value="" style="html=1;points=[];perimeter=orthogonalPerimeter;rounded=0;shadow=0;comic=0;labelBackgroundColor=none;strokeWidth=1;fontFamily=Verdana;fontSize=12;align=center;" parent="7baba1c4bc27f4b0-8" vertex="1">
          <mxGeometry x="45" y="110" width="10" height="140" as="geometry" />
        </mxCell>
        <mxCell id="y_yRbqdmOVOouyvcq43K-3" style="edgeStyle=orthogonalEdgeStyle;rounded=0;orthogonalLoop=1;jettySize=auto;html=1;entryX=1.2;entryY=0.88;entryDx=0;entryDy=0;entryPerimeter=0;exitX=0.986;exitY=0.089;exitDx=0;exitDy=0;exitPerimeter=0;" parent="7baba1c4bc27f4b0-8" source="y_yRbqdmOVOouyvcq43K-2" target="y_yRbqdmOVOouyvcq43K-2" edge="1">
          <mxGeometry relative="1" as="geometry">
            <mxPoint x="110" y="220" as="targetPoint" />
            <Array as="points">
              <mxPoint x="120" y="164" />
              <mxPoint x="120" y="204" />
            </Array>
          </mxGeometry>
        </mxCell>
        <mxCell id="y_yRbqdmOVOouyvcq43K-4" value="checkRanProcessStatus()" style="edgeLabel;html=1;align=center;verticalAlign=middle;resizable=0;points=[];" parent="y_yRbqdmOVOouyvcq43K-3" vertex="1" connectable="0">
          <mxGeometry x="-0.0422" y="-2" relative="1" as="geometry">
            <mxPoint x="12" y="5" as="offset" />
          </mxGeometry>
        </mxCell>
        <mxCell id="y_yRbqdmOVOouyvcq43K-2" value="" style="html=1;points=[];perimeter=orthogonalPerimeter;rounded=0;shadow=0;comic=0;labelBackgroundColor=none;strokeWidth=1;fontFamily=Verdana;fontSize=12;align=center;" parent="7baba1c4bc27f4b0-8" vertex="1">
          <mxGeometry x="50" y="160" width="10" height="50" as="geometry" />
        </mxCell>
        <mxCell id="y_yRbqdmOVOouyvcq43K-7" value="&lt;span style=&quot;white-space: pre;&quot;&gt;&#x9;&lt;span style=&quot;white-space: pre;&quot;&gt;&#x9;&lt;/span&gt;&lt;/span&gt;sendNotification()" style="html=1;verticalAlign=bottom;endArrow=block;labelBackgroundColor=none;fontFamily=Verdana;fontSize=12;" parent="7baba1c4bc27f4b0-8" edge="1">
          <mxGeometry relative="1" as="geometry">
            <mxPoint x="55" y="230" as="sourcePoint" />
            <mxPoint x="310" y="230" as="targetPoint" />
          </mxGeometry>
        </mxCell>
        <mxCell id="y_yRbqdmOVOouyvcq43K-8" value="if processStatus not in&lt;div style=&quot;font-size: 7px;&quot;&gt;&amp;nbsp;acceptedProcessStatus&lt;/div&gt;" style="edgeLabel;html=1;align=center;verticalAlign=middle;resizable=0;points=[];fontSize=7;" parent="y_yRbqdmOVOouyvcq43K-7" vertex="1" connectable="0">
          <mxGeometry x="-0.8837" relative="1" as="geometry">
            <mxPoint x="23" y="-11" as="offset" />
          </mxGeometry>
        </mxCell>
        <mxCell id="56NzPOEbL97k_swbkCt9-3" style="edgeStyle=orthogonalEdgeStyle;rounded=0;orthogonalLoop=1;jettySize=auto;html=1;dashed=1;" parent="1" edge="1">
          <mxGeometry relative="1" as="geometry">
            <mxPoint x="290" y="220" as="sourcePoint" />
            <mxPoint x="166" y="220" as="targetPoint" />
          </mxGeometry>
        </mxCell>
        <mxCell id="56NzPOEbL97k_swbkCt9-12" value="processLog" style="edgeLabel;html=1;align=center;verticalAlign=middle;resizable=0;points=[];" parent="56NzPOEbL97k_swbkCt9-3" vertex="1" connectable="0">
          <mxGeometry x="0.0818" y="3" relative="1" as="geometry">
            <mxPoint y="-13" as="offset" />
          </mxGeometry>
        </mxCell>
        <mxCell id="56NzPOEbL97k_swbkCt9-4" value="&lt;font style=&quot;font-size: 9px;&quot;&gt;Do while not in acceptedServerStatus&lt;br&gt;or past&lt;br&gt;&amp;nbsp;unavailabilityTimeThreshold&lt;/font&gt;" style="shape=umlFrame;whiteSpace=wrap;html=1;pointerEvents=0;width=110;height=70;" parent="1" vertex="1">
          <mxGeometry x="40" y="410" width="440" height="80" as="geometry" />
        </mxCell>
        <mxCell id="56NzPOEbL97k_swbkCt9-2" value="getRanProcesses()" style="html=1;verticalAlign=bottom;endArrow=block;labelBackgroundColor=none;fontFamily=Verdana;fontSize=12;entryX=0.4;entryY=0;entryDx=0;entryDy=0;entryPerimeter=0;exitX=0.971;exitY=0.001;exitDx=0;exitDy=0;exitPerimeter=0;" parent="1" source="7baba1c4bc27f4b0-9" target="7baba1c4bc27f4b0-16" edge="1">
          <mxGeometry relative="1" as="geometry">
            <mxPoint x="170" y="190" as="sourcePoint" />
            <mxPoint x="450" y="280" as="targetPoint" />
          </mxGeometry>
        </mxCell>
        <mxCell id="y_yRbqdmOVOouyvcq43K-10" value="" style="html=1;points=[];perimeter=orthogonalPerimeter;rounded=0;shadow=0;comic=0;labelBackgroundColor=none;strokeWidth=1;fontFamily=Verdana;fontSize=12;align=center;" parent="1" vertex="1">
          <mxGeometry x="285" y="350" width="10" height="30" as="geometry" />
        </mxCell>
        <mxCell id="y_yRbqdmOVOouyvcq43K-11" style="edgeStyle=orthogonalEdgeStyle;rounded=0;orthogonalLoop=1;jettySize=auto;html=1;dashed=1;" parent="1" edge="1">
          <mxGeometry relative="1" as="geometry">
            <mxPoint x="290" y="380" as="sourcePoint" />
            <mxPoint x="166" y="380" as="targetPoint" />
          </mxGeometry>
        </mxCell>
        <mxCell id="y_yRbqdmOVOouyvcq43K-12" value="serverStatus" style="edgeLabel;html=1;align=center;verticalAlign=middle;resizable=0;points=[];" parent="y_yRbqdmOVOouyvcq43K-11" vertex="1" connectable="0">
          <mxGeometry x="0.0818" y="3" relative="1" as="geometry">
            <mxPoint y="-13" as="offset" />
          </mxGeometry>
        </mxCell>
        <mxCell id="y_yRbqdmOVOouyvcq43K-13" value="getServerStatus()" style="html=1;verticalAlign=bottom;endArrow=block;labelBackgroundColor=none;fontFamily=Verdana;fontSize=12;entryX=0.4;entryY=0;entryDx=0;entryDy=0;entryPerimeter=0;exitX=0.971;exitY=0.001;exitDx=0;exitDy=0;exitPerimeter=0;" parent="1" target="y_yRbqdmOVOouyvcq43K-10" edge="1">
          <mxGeometry relative="1" as="geometry">
            <mxPoint x="165" y="350" as="sourcePoint" />
            <mxPoint x="450" y="440" as="targetPoint" />
          </mxGeometry>
        </mxCell>
        <mxCell id="y_yRbqdmOVOouyvcq43K-16" value="" style="html=1;points=[];perimeter=orthogonalPerimeter;rounded=0;shadow=0;comic=0;labelBackgroundColor=none;strokeWidth=1;fontFamily=Verdana;fontSize=12;align=center;" parent="1" vertex="1">
          <mxGeometry x="160" y="420" width="10" height="50" as="geometry" />
        </mxCell>
        <mxCell id="y_yRbqdmOVOouyvcq43K-14" style="edgeStyle=orthogonalEdgeStyle;rounded=0;orthogonalLoop=1;jettySize=auto;html=1;entryX=1.2;entryY=0.88;entryDx=0;entryDy=0;entryPerimeter=0;exitX=0.986;exitY=0.089;exitDx=0;exitDy=0;exitPerimeter=0;" parent="1" source="y_yRbqdmOVOouyvcq43K-16" target="y_yRbqdmOVOouyvcq43K-16" edge="1">
          <mxGeometry relative="1" as="geometry">
            <mxPoint x="220" y="480" as="targetPoint" />
            <Array as="points">
              <mxPoint x="230" y="424" />
              <mxPoint x="230" y="464" />
            </Array>
          </mxGeometry>
        </mxCell>
        <mxCell id="y_yRbqdmOVOouyvcq43K-15" value="checkServerAvailability()" style="edgeLabel;html=1;align=center;verticalAlign=middle;resizable=0;points=[];" parent="y_yRbqdmOVOouyvcq43K-14" vertex="1" connectable="0">
          <mxGeometry x="-0.0422" y="-2" relative="1" as="geometry">
            <mxPoint x="12" y="5" as="offset" />
          </mxGeometry>
        </mxCell>
      </root>
    </mxGraphModel>
  </diagram>
</mxfile>
